<svg xmlns="http://www.w3.org/2000/svg" version="1.1" xmlns:xlink="http://www.w3.org/1999/xlink" xmlns:svgjs="http://svgjs.com/svgjs" width="128" height="128"><svg xmlns="http://www.w3.org/2000/svg" version="1.1" xmlns:xlink="http://www.w3.org/1999/xlink" xmlns:svgjs="http://svgjs.dev/svgjs" width="128" height="128" viewBox="0 0 128 128"><g transform="matrix(0.8046875,0,0,0.8046875,12.760752631578946,14.521189669679202)"><svg viewBox="0 0 95 92" data-background-color="#121212" preserveAspectRatio="xMidYMid meet" height="123" width="128" xmlns="http://www.w3.org/2000/svg" xmlns:xlink="http://www.w3.org/1999/xlink"><g id="SvgjsG1003" transform="matrix(1,0,0,1,-0.24049999999999727,-0.008803342816506188)"><svg viewBox="0 0 95.481 92.017606685633" height="92.017606685633" width="95.481"><g><svg viewBox="0 0 95.481 92.017606685633" height="92.017606685633" width="95.481"><g><svg viewBox="0 0 95.481 92.017606685633" height="92.017606685633" width="95.481"><g id="SvgjsG1002"><svg viewBox="0 0 95.481 92.017606685633" height="92.017606685633" width="95.481" id="SvgjsSvg1001"><g><svg viewBox="0 0 95.481 92.017606685633" height="92.017606685633" width="95.481"><g><svg viewBox="0 0 95.481 92.017606685633" height="92.017606685633" width="95.481"><g><svg xmlns="http://www.w3.org/2000/svg" xmlns:xlink="http://www.w3.org/1999/xlink" version="1.1" x="0" y="0" viewBox="31.199999999999996 33.4 140.6 135.5" enable-background="new 0 0 200 200" xml:space="preserve" height="92.017606685633" width="95.481" class="icon-icon-0" data-fill-palette-color="accent" id="SvgjsSvg1000"><g fill="#6750a5" data-fill-palette-color="accent"><path d="M103 81c-7.8 0-14.2-6.4-14.2-14.2s6.4-14.2 14.2-14.2 14.2 6.4 14.2 14.2S110.8 81 103 81zM103 56.6c-5.6 0-10.2 4.6-10.2 10.2S97.4 77 103 77c5.6 0 10.2-4.6 10.2-10.2S108.6 56.6 103 56.6z" fill="#6750a5" data-fill-palette-color="accent"></path></g><g fill="#6750a5" data-fill-palette-color="accent"><path d="M82.1 114.2c-7.8 0-14.2-6.4-14.2-14.2s6.4-14.2 14.2-14.2 14.2 6.4 14.2 14.2S89.9 114.2 82.1 114.2zM82.1 89.8c-5.6 0-10.2 4.6-10.2 10.2s4.6 10.2 10.2 10.2c5.6 0 10.2-4.6 10.2-10.2S87.7 89.8 82.1 89.8z" fill="#6750a5" data-fill-palette-color="accent"></path></g><g fill="#6750a5" data-fill-palette-color="accent"><path d="M123.9 114.2c-7.8 0-14.2-6.4-14.2-14.2s6.4-14.2 14.2-14.2 14.2 6.4 14.2 14.2S131.7 114.2 123.9 114.2zM123.9 89.8c-5.6 0-10.2 4.6-10.2 10.2s4.6 10.2 10.2 10.2 10.2-4.6 10.2-10.2S129.5 89.8 123.9 89.8z" fill="#6750a5" data-fill-palette-color="accent"></path></g><g fill="#6750a5" data-fill-palette-color="accent"><path d="M90.8 88c-0.4 0-0.8-0.1-1.1-0.3-0.9-0.6-1.2-1.9-0.6-2.8l3.5-5.2c0.6-0.9 1.9-1.2 2.8-0.6 0.9 0.6 1.2 1.9 0.6 2.8l-3.5 5.2C92.1 87.7 91.4 88 90.8 88z" fill="#6750a5" data-fill-palette-color="accent"></path></g><g fill="#6750a5" data-fill-palette-color="accent"><path d="M115.2 88c-0.6 0-1.3-0.3-1.7-0.9l-3.5-5.2c-0.6-0.9-0.4-2.2 0.6-2.8 0.9-0.6 2.2-0.4 2.8 0.6l3.5 5.2c0.6 0.9 0.4 2.2-0.6 2.8C116 87.9 115.6 88 115.2 88z" fill="#6750a5" data-fill-palette-color="accent"></path></g><g fill="#6750a5" data-fill-palette-color="accent"><path d="M106.2 103h-6.4c-1.1 0-2-0.9-2-2s0.9-2 2-2h6.4c1.1 0 2 0.9 2 2S107.3 103 106.2 103z" fill="#6750a5" data-fill-palette-color="accent"></path></g><g fill="#6750a5" data-fill-palette-color="accent"><path d="M78.2 168.9c-3.6 0-7.4-2.8-7.4-7.4v-22.4H53.3c-12.2 0-22.1-9.9-22.1-22.1V55.5c0-12.2 9.9-22.1 22.1-22.1h96.4c12.2 0 22.1 9.9 22.1 22.1v61.6c0 12.2-9.9 22.1-22.1 22.1h-38.6l-27.7 27.7C82 168.2 80.1 168.9 78.2 168.9zM53.3 37.5c-10 0-18.1 8.1-18.1 18.1v61.6c0 10 8.1 18.1 18.1 18.1h19.5c1.1 0 2 0.9 2 2v24.4c0 2.2 1.8 3.4 3.4 3.4 0.6 0 1.6-0.2 2.5-1l28.2-28.2c0.4-0.4 0.9-0.6 1.4-0.6h39.4c10 0 18.1-8.1 18.1-18.1V55.5c0-10-8.1-18.1-18.1-18.1H53.3z" fill="#6750a5" data-fill-palette-color="accent"></path></g></svg></g></svg></g></svg></g></svg></g></svg></g></svg></g><defs></defs></svg><rect width="95.481" height="92.017606685633" fill="none" stroke="none" visibility="hidden"></rect></g></svg></g></svg><style>@media (prefers-color-scheme: light) { :root { filter: contrast(1) brightness(1); } }
@media (prefers-color-scheme: dark) { :root { filter: contrast(0.7407407407407407) brightness(2); } }
</style></svg>